# xmcd CD database file
#
# Track frame offsets:
#	300
#	25391
#	48087
#	77864
#	106905
#	141189
#	173015
#	200726
#	233455
#	266941
#
# Disc length: 3985 seconds
#
# Revision: 0
# Processed by: cddbd v1.5.2PL0 Copyright (c) Steve Scherf et al.
# Submitted via: CDex 1.70beta2
#
DISCID=850f8d0a
DTITLE=Pat Metheny and Brad Mehlday - Metheny Mehlday
DYEAR=1900
DGENRE=Jazz
TTITLE0=Unrequited
TTITLE1=Ahmid-6
TTITLE2=Summer Day
TTITLE3=Ring of Life
TTITLE4=Legend
TTITLE5=Find Me in Your Dreams
TTITLE6=Say the Brother's Name
TTITLE7=Bachelor's III
TTITLE8=Annie's Bittersweet Cake
TTITLE9=Make Peace
EXTD=
EXTT0=
EXTT1=
EXTT2=
EXTT3=
EXTT4=
EXTT5=
EXTT6=
EXTT7=
EXTT8=
EXTT9=
PLAYORDER=
